# xmcd
#
# Track frame offsets:
#	150
#	14228
#	25396
#	37435
#	47894
#	59462
#	70483
#	81065
#	92550
#	103978
#	111094
#	122501
#	137582
#	149334
#	160466
#	169269
#	181062
#	194061
#	203057
#	210934
#
# Disc length: 2978 seconds
#
# Revision: 1
# Processed by: cddbd v1.5.1PL0 Copyright (c) Steve Scherf et al.
# Submitted via: audiograbber 1.81.02
#
DISCID=310ba014
DTITLE=Various Artist - Country Love Songs Vol. 2
DYEAR=1999
DGENRE=Country
TTITLE0=George Jones - All I Have To Offer You Is Me
TTITLE1=Patsy Cline - I'm Hungry, Hungry For Love
TTITLE2=Freddy Fender - Before The Next Teardrop Falls
TTITLE3=Ray Price - Little Miss Blue Eyes
TTITLE4=Jim Reeves - I Love You More
TTITLE5=Don Williams - Spend Some Time With Me
TTITLE6=Waylon Jennings - Burning Memories
TTITLE7=Willie Nelson - Touch Me
TTITLE8=Patsy Cline - Loved and Lost Again
TTITLE9=Buck Owens - You For Me
TTITLE10=Hank Locklin - Send Me The Pillow That You Dream On
TTITLE11=Kenny Rogers - Condition
TTITLE12=Skeeter Davis - The End Of The World
TTITLE13=Ferlin Huskey - San Antonio Rose
TTITLE14=Patsy Cline - Come On In
TTITLE15=Cowboy Copas - Memories Of You
TTITLE16=Lynn Anderson - Rose Garden
TTITLE17=Jeorge Jones - Love Bug
TTITLE18=Jim Reeves - Till The End Of The Road
TTITLE19=Charley Pride - Help Me Make It Through The Night
EXTD=
EXTT0=
EXTT1=
EXTT2=
EXTT3=
EXTT4=
EXTT5=
EXTT6=
EXTT7=
EXTT8=
EXTT9=
EXTT10=
EXTT11=
EXTT12=
EXTT13=
EXTT14=
EXTT15=
EXTT16=
EXTT17=
EXTT18=
EXTT19=
PLAYORDER=
